<svg id="Calque_4" xmlns="http://www.w3.org/2000/svg" xmlns:xlink="http://www.w3.org/1999/xlink" viewBox="0 0 2295.95 1024"><defs><linearGradient id="Dégradé_sans_nom_3" x1="768.61" y1="551.35" x2="769.11" y2="551.85" gradientUnits="userSpaceOnUse"><stop offset="0" stop-color="#69c2c3"/><stop offset=".24" stop-color="#71c5c3"/><stop offset=".48" stop-color="#beddcd"/><stop offset=".54" stop-color="#b0d9cb"/><stop offset=".64" stop-color="#8ecec7"/><stop offset=".78" stop-color="#5bbfc1"/></linearGradient><linearGradient id="Dégradé_sans_nom_3-2" x1="404.05" y1="240.95" x2="934.59" y2="771.49" xlink:href="#Dégradé_sans_nom_3"/><linearGradient id="Dégradé_sans_nom_41" x1="607.06" y1="27.96" x2="1198.96" y2="619.87" gradientUnits="userSpaceOnUse"><stop offset=".24" stop-color="#71c5c3"/><stop offset=".48" stop-color="#beddcd"/><stop offset=".54" stop-color="#b0d9cb"/><stop offset=".64" stop-color="#8ecec7"/><stop offset=".78" stop-color="#5bbfc1"/></linearGradient><style>.cls-3{stroke-width:0;fill:#6ac3c3}</style></defs><path d="M768.86 551.1v1-1Z" style="stroke-width:0;fill:url(#Dégradé_sans_nom_3)"/><path d="M922.12 666.95c0-33.66 21.26-402.13 21.26-426.93-15.06-20.37-35.43-25.69-77.06-25.69-38.09 0-93.89 15.06-110.72 24.8 5.31 9.74 8.86 44.29 8.86 113.38 0 34.9-1.72 88.7-1.77 104.7-82.26-1.22-141.22-6.1-178.88-10.13 3.39-62.56 6.66-139.61 6.66-148.96 0-56.69-14.17-76.17-62-76.17-38.09 0-118.69 20.37-135.52 30.12 15.06 18.6 21.26 41.63 21.26 119.58 0 60.23-15.06 370.24-15.06 405.67 12.4 13.29 44.29 15.37 79.72 15.37 38.09 0 83.26-3.86 100.09-21.57-4.43-17.72-6.2-58.46-6.2-85.92 0-40.14 2.59-96.46 3.9-122.47 8.87.36 19.31.36 31.31.36 73.5 0 122.72-9.7 152.15-17.44-2.03 41.86-5.89 92.69-7.45 122.93h-.07c0 .53 0 1.03-.01 1.56-1.37 26.52-2.42 47.59-2.9 61.38-2.57 25.49-6.38 40.75-9.49 46.46 16.83 9.74 72.63 24.8 110.72 24.8s59.64-4.73 74.47-22.39c1.69-2.02 2.59-4.58 2.48-7.21-.56-13.39-3.19-51.31-5.73-99.03v-7.2Z" style="fill:url(#Dégradé_sans_nom_3-2);stroke-width:0"/><path d="M1002.86 736.34c0-33.24 10.82-186.29 10.82-242.72 0-39.42-6.96-63.39-18.55-79.62 31.69-16.23 67.25-26.28 98.17-26.28 44.83 0 65.71 13.14 65.71 61.84 0 23.19-9.28 182.43-9.28 214.12 0 68.02 1.55 82.71 14.69 104.35-23.96 18.55-56.43 28.6-88.89 28.6-54.11 0-72.66-20.87-72.66-60.29Zm10.05-439.83c0-41.74 38.65-76.53 90.44-76.53 48.7 0 68.8 23.96 68.8 52.56 0 39.42-35.56 77.3-92.76 77.3-44.83 0-66.48-21.64-66.48-53.34Z" style="fill:url(#Dégradé_sans_nom_41);stroke-width:0"/><path class="cls-3" d="M1223.16 757.98c0-21.64 7.73-166.97 7.73-239.63 0-57.2-1.55-88.12-15.46-109.76 27.05-13.14 64.93-20.87 93.53-20.87 44.83 0 65.71 23.96 65.71 70.34 0 23.19 78.07-70.34 115.95-70.34 20.1 0 47.15 40.97 78.84 54.11-29.37 77.3-52.56 105.13-71.12 105.13-16.23 0-31.69-6.18-54.88-30.92-23.19 0-78.84 117.5-81.94 265.91-15.46 6.96-41.74 10.05-64.93 10.05-44.83 0-65.7-17.01-73.43-34.01ZM1551.68 627.35c0-136.05 91.99-239.63 217.21-239.63 66.48 0 139.14 17.01 139.14 98.94 0 86.58-91.99 122.13-187.84 122.13-8.5 0-13.14 0-21.64-.77v11.6c0 68.02 38.65 85.03 79.62 85.03 17.78 0 44.83-9.28 116.72-65.71 4.64 6.96 6.96 14.69 6.96 22.42 0 13.14-2.32 20.87-9.28 34.01-37.1 67.25-98.17 100.49-161.56 100.49-110.54 0-179.33-62.61-179.33-168.51Zm231.9-140.68c0-34.78-10.82-47.15-27.05-47.15-23.19 0-49.47 16.23-57.2 127.54h6.96c53.34 0 77.3-21.64 77.3-80.39Z"/></svg>